#!OML:ASF F:\VICON\USERDATA\INSTALL\Justin_Nancy\Justin_Nancy.ASF
:FULLY-SPECIFIED
:DEGREES
1
root 1.78559 16.5578 -24.1595 -7.48711 -0.683286 1.54756
lowerback 12.5639 1.39279 -2.02739
upperback 2.51552 1.68293 2.0537
thorax -4.51997 0.867732 3.02401
lowerneck -13.9287 -4.00711 -9.11602
upperneck 12.9932 -4.58445 6.46828
head 6.60683 -2.13979 3.11786
rclavicle -1.14301e-014 7.15625e-015
rhumerus -46.7026 12.3433 -97.9682
rradius 121.518
rwrist -8.90986
rhand -15.6446 31.9897
rfingers 7.12502
rthumb 10.543 2.27408
lclavicle -1.14301e-014 7.15625e-015
lhumerus -61.0052 -5.03612 98.3378
lradius 103.381
lwrist 30.124
lhand -17.4989 8.76404
lfingers 7.12502
lthumb 8.75396 38.5625
rfemur -7.69173 3.59177 19.2974
rtibia 89.8631
rfoot 4.4045 -15.424
rtoes 11.4829
lfemur -26.0183 0.850396 -22.8129
ltibia 47.7217
lfoot -10.0098 0.451416
ltoes -2.74056
2
root 1.77909 16.5039 -23.6631 -7.51134 -1.40039 3.09902
lowerback 12.6722 1.59718 -3.5829
upperback 2.68173 1.72188 1.5854
thorax -4.43628 0.899811 3.40659
lowerneck -15.2128 -3.92553 -9.25531
upperneck 13.7687 -4.40538 6.7546
head 7.07163 -2.01735 3.2457
rclavicle -9.54166e-015 -6.36111e-015
rhumerus -47.079 10.9516 -98.2623
rradius 119.101
rwrist -8.13517
rhand -15.861 32.2487
rfingers 7.12502
rthumb 10.3343 2.52257
lclavicle -9.54166e-015 -6.36111e-015
lhumerus -58.1425 -5.76645 98.3483
lradius 102.293
lwrist 30.9701
lhand -17.2761 9.34543
lfingers 7.12502
lthumb 8.96889 39.1348
rfemur -10.994 3.56482 16.6822
rtibia 92.1824
rfoot 3.07639 -14.6706
rtoes 10.3663
lfemur -24.7006 1.48746 -24.4161
ltibia 48.9884
lfoot -12.2284 1.38475
ltoes -1.66636
3
root 1.77123 16.4655 -23.172 -7.24255 -2.15089 3.71787
lowerback 12.4485 1.58847 -4.13764
upperback 2.63379 1.63211 1.32338
thorax -4.36269 0.859852 3.46319
lowerneck -15.8536 -3.67147 -9.3644
upperneck 14.3975 -4.06252 7.10343
head 7.36691 -1.81948 3.41924
rclavicle 1.42131e-014 1.27222e-014
rhumerus -47.8637 9.65125 -98.6223
rradius 116.519
rwrist -7.68285
rhand -16.2449 31.8648
rfingers 7.12502
rthumb 9.96389 2.12058
lclavicle 1.42131e-014 1.27222e-014
lhumerus -55.3533 -6.38488 98.1437
lradius 101.138
lwrist 31.7924
lhand -17.4742 9.30228
lfingers 7.12502
lthumb 8.77775 39.0997
rfemur -14.4887 3.46346 15.2897
rtibia 93.705
rfoot 1.75007 -14.0691
rtoes 13.1794
lfemur -23.7427 2.4502 -25.1408
ltibia 50.1033
lfoot -13.8244 2.79302
ltoes -7.77295
4
root 1.74925 16.4283 -22.6981 -7.12586 -2.15664 4.35106
lowerback 12.6646 1.35542 -4.85969
upperback 2.39576 1.20262 1.08209
thorax -4.70097 0.668006 3.6856
lowerneck -15.6239 -3.37348 -9.32601
upperneck 14.5555 -3.71051 7.20541
head 7.34847 -1.64521 3.49089
rclavicle -2.03754e-015 3.49861e-014
rhumerus -48.7362 8.52028 -98.863
rradius 113.474
rwrist -7.25857
rhand -16.4379 31.0039
rfingers 7.12502
rthumb 9.77772 1.25093
lclavicle -2.03754e-015 3.49861e-014
lhumerus -52.8567 -6.87884 97.8739
lradius 100.102
lwrist 32.3408
lhand -17.8037 10.2934
lfingers 7.12502
lthumb 8.45979 40.104
rfemur -17.7356 2.61564 14.0071
rtibia 94.913
rfoot 0.0300315 -13.5628
rtoes 16.4511
lfemur -22.3258 2.41258 -25.7264
ltibia 51.1623
lfoot -16.6908 3.37275
ltoes -4.39532
5
root 1.72737 16.3995 -22.2256 -6.72972 -2.1592 4.3959
lowerback 12.601 1.14103 -4.87487
upperback 2.097 0.906917 0.940614
thorax -4.94942 0.533784 3.5939
lowerneck -15.3152 -3.24162 -9.22319
upperneck 14.5591 -3.60218 7.31428
head 7.28626 -1.58382 3.52438
rclavicle -1.06847e-014 -1.11319e-014
rhumerus -49.502 7.0304 -98.909
rradius 110.52
rwrist -6.87328
rhand -16.4452 29.954
rfingers 7.12502
rthumb 9.77069 0.200698
lclavicle -1.06847e-014 -1.11319e-014
lhumerus -50.1016 -7.56163 97.5461
lradius 99.1276
lwrist 32.4258
lhand -17.9947 11.7963
lfingers 7.12502
lthumb 8.27547 41.6143
rfemur -21.2836 1.73814 13.6455
rtibia 95.4525
rfoot -0.545707 -13.2142
rtoes 15.6643
lfemur -21.089 2.28966 -25.6959
ltibia 51.8211
lfoot -18.7496 3.80709
ltoes -4.548
6
root 1.66944 16.3424 -21.8499 -5.85379 0.76814 3.96343
lowerback 13.4281 -0.00872676 -4.73788
upperback 1.49683 -0.648244 0.958436
thorax -5.88817 -0.195608 3.81438
lowerneck -15.3211 -3.14161 -9.18229
upperneck 14.599 -3.52518 7.58505
head 7.29723 -1.52052 3.61744
rclavicle 1.39398e-014 3.97569e-015
rhumerus -50.3479 5.53467 -98.8708
rradius 108.5
rwrist -7.16736
rhand -16.6186 28.5364
rfingers 7.12502
rthumb 9.60338 -1.22475
lclavicle 1.39398e-014 3.97569e-015
lhumerus -48.2932 -7.93833 97.1247
lradius 98.9545
lwrist 31.6035
lhand -16.9154 11.5703
lfingers 7.12502
lthumb 9.31695 41.3444
rfemur -25.1593 -2.32664 13.5257
rtibia 95.7327
rfoot -1.45672 -12.7761
rtoes 12.861
lfemur -21.1098 -0.125102 -25.4793
ltibia 52.4325
lfoot -19.5232 3.87821
ltoes -5.85484
7
root 1.70488 16.3829 -21.2691 -6.24475 -1.64951 3.92886
lowerback 12.5316 0.45366 -4.04085
upperback 1.88601 0.100666 0.807611
thorax -5.05236 0.127576 3.11587
lowerneck -15.9013 -3.05415 -9.07224
upperneck 15.0609 -3.40728 7.61326
head 7.53678 -1.44585 3.62611
rclavicle -9.7156e-015 1.35174e-014
rhumerus -51.3272 4.91777 -99.001
rradius 106.693
rwrist -10.1817
rhand -16.0897 26.1163
rfingers 7.12502
rthumb 10.1136 -3.62063
lclavicle -9.7156e-015 1.35174e-014
lhumerus -46.4092 -7.95537 96.8101
lradius 99.2267
lwrist 30.2387
lhand -18.1239 10.7209
lfingers 7.12502
lthumb 8.15075 40.5437
rfemur -26.8882 -0.327304 13.782
rtibia 94.5369
rfoot -2.73762 -12.5924
rtoes 9.36714
lfemur -17.9666 1.88285 -25.3167
ltibia 52.2295
lfoot -21.4442 5.51277
ltoes -7.48064
8
root 1.69399 16.3662 -20.8085 -5.71456 -2.88668 4.09235
lowerback 12.4373 0.640983 -4.20803
upperback 1.59669 0.323724 0.781432
thorax -5.32512 0.251213 3.14601
lowerneck -16.5701 -2.98435 -8.89869
upperneck 15.737 -3.29407 7.43568
head 7.86006 -1.38832 3.55822
rclavicle 1.05853e-014 -1.98785e-014
rhumerus -52.6265 5.22774 -99.5002
rradius 106.466
rwrist -14.4379
rhand -18.5758 23.7821
rfingers 7.12502
rthumb 7.71458 -6.05718
lclavicle 1.05853e-014 -1.98785e-014
lhumerus -44.7897 -7.37384 96.5988
lradius 100.016
lwrist 28.6638
lhand -18.5196 11.1645
lfingers 7.12502
lthumb 7.76886 41.0017
rfemur -30.5311 0.244006 13.701
rtibia 93.6051
rfoot -3.62701 -12.0764
rtoes 7.94262
lfemur -16.6186 2.74615 -25.4926
ltibia 52.0736
lfoot -22.3511 6.50867
ltoes -9.41316
9
root 1.69523 16.3768 -20.296 -6.17242 -7.35284 4.68649
lowerback 12.2405 1.94563 -4.82287
upperback 1.75604 1.98213 0.797992
thorax -5.20935 1.07293 3.23214
lowerneck -17.1405 -2.82587 -8.97988
upperneck 16.3598 -3.01274 7.32869
head 8.14192 -1.2629 3.57786
rclavicle 1.77167e-014 3.18055e-015
rhumerus -53.7414 5.05621 -98.6962
rradius 105.459
rwrist -15.1054
rhand -15.6383 24.8078
rfingers 7.12502
rthumb 10.5491 -4.90743
lclavicle 1.77167e-014 3.18055e-015
lhumerus -43.188 -6.43772 96.5317
lradius 100.943
lwrist 27.8074
lhand -17.7437 10.5642
lfingers 7.12502
lthumb 8.51764 40.3724
rfemur -33.2299 4.34927 13.6347
rtibia 91.8872
rfoot -4.1036 -11.7027
rtoes 5.84656
lfemur -13.5408 6.23832 -25.8317
ltibia 51.2826
lfoot -23.1471 8.14046
ltoes -10.8823
10
root 1.66735 16.384 -19.8296 -5.66872 -8.5086 5.10178
lowerback 11.866 2.13106 -5.71295
upperback 1.56507 2.13903 0.967755
thorax -5.25735 1.17501 3.8943
lowerneck -17.668 -2.67156 -9.09372
upperneck 16.6011 -2.68247 7.07938
head 8.28466 -1.13121 3.55589
rclavicle 9.14409e-015 -2.14687e-014
rhumerus -55.1368 5.47219 -98.3245
rradius 105.63
rwrist -16.7465
rhand -14.7496 25.4618
rfingers 7.12502
rthumb 11.4062 -4.20793
lclavicle 9.14409e-015 -2.14687e-014
lhumerus -41.4254 -5.57961 96.5257
lradius 102.06
lwrist 28.443
lhand -16.7189 8.90323
lfingers 7.12502
lthumb 9.50661 38.6688
rfemur -36.1422 4.94308 13.4144
rtibia 89.9004
rfoot -4.7374 -11.4434
rtoes 3.27682
lfemur -11.927 6.94134 -26.2992
ltibia 50.64
lfoot -23.1119 8.77676
ltoes -11.0527
11
root 1.65181 16.4299 -19.3108 -5.52909 -7.06294 5.24718
lowerback 11.6681 1.41129 -5.98128
upperback 1.44063 1.16941 1.13253
thorax -5.17807 0.706088 4.38614
lowerneck -17.6108 -2.48325 -9.06873
upperneck 16.4677 -2.34479 6.66217
head 8.19501 -1.01208 3.44826
rclavicle -1.19271e-014 4.77083e-015
rhumerus -57.1466 6.02753 -98.2228
rradius 106.685
rwrist -18.2514
rhand -14.9378 25.7686
rfingers 7.12502
rthumb 11.2248 -3.91112
lclavicle -1.19271e-014 4.77083e-015
lhumerus -40.6754 -4.81356 96.5619
lradius 103.899
lwrist 29.8717
lhand -16.9029 7.8624
lfingers 7.12502
lthumb 9.32899 37.636
rfemur -37.1214 2.93097 13.251
rtibia 87.0695
rfoot -5.79868 -11.2951
rtoes 0.956621
lfemur -9.5425 5.28712 -26.7122
ltibia 49.7121
lfoot -22.8482 8.82152
ltoes -11.4651
12
root 1.62612 16.4827 -18.8034 -5.32715 -6.67197 5.43861
lowerback 11.4253 1.09115 -6.4908
upperback 1.33322 0.70626 1.35657
thorax -5.10912 0.491437 4.99075
lowerneck -17.6767 -2.23941 -9.00232
upperneck 16.3364 -1.9285 6.22654
head 8.12246 -0.852437 3.3373
rclavicle -5.01931e-015 -1.19271e-014
rhumerus -58.8758 6.61396 -98.0298
rradius 107.896
rwrist -19.0427
rhand -15.0737 25.8839
rfingers 7.12502
rthumb 11.0937 -3.80286
lclavicle -5.01931e-015 -1.19271e-014
lhumerus -39.7568 -4.0261 96.6548
lradius 105.833
lwrist 31.41
lhand -16.7375 7.40287
lfingers 7.12502
lthumb 9.48866 37.1692
rfemur -38.4032 2.17756 13.256
rtibia 83.8073
rfoot -6.2971 -11.3354
rtoes -0.201603
lfemur -7.39425 4.58568 -27.0702
ltibia 48.8269
lfoot -22.4851 9.05717
ltoes -14.3138
13
root 1.59218 16.5475 -18.3032 -5.08729 -6.84915 5.74841
lowerback 11.1439 0.965657 -7.19873
upperback 1.27672 0.481299 1.55257
thorax -4.98932 0.394208 5.63962
lowerneck -17.9964 -1.98062 -8.76066
upperneck 16.2155 -1.48721 5.64019
head 8.09591 -0.681658 3.14999
rclavicle 8.59744e-015 -3.18055e-015
rhumerus -60.1959 7.21424 -97.7759
rradius 109.045
rwrist -19.759
rhand -14.7313 25.7123
rfingers 7.12502
rthumb 11.4239 -3.95646
lclavicle 8.59744e-015 -3.18055e-015
lhumerus -38.6715 -3.36349 96.6325
lradius 107.712
lwrist 33.2453
lhand -16.2324 9.24484
lfingers 7.12502
lthumb 9.97594 38.9884
rfemur -39.6304 2.16889 13.2382
rtibia 80.0262
rfoot -6.54263 -11.2395
rtoes 0.716001
lfemur -5.33595 4.4321 -27.4737
ltibia 47.8377
lfoot -21.9763 9.09819
ltoes -20.1
14
root 1.5513 16.6157 -17.7957 -4.81725 -7.40006 5.95677
lowerback 10.7487 0.885407 -7.7867
upperback 1.12123 0.340702 1.74657
thorax -4.91723 0.340927 6.20469
lowerneck -17.9662 -1.70641 -8.61353
upperneck 15.9735 -1.06683 5.23333
head 7.97449 -0.511405 3.0345
rclavicle -2.69353e-014 9.54166e-015
rhumerus -61.6362 7.86617 -97.6895
rradius 110.008
rwrist -20.3431
rhand -14.2024 26.2318
rfingers 7.12502
rthumb 11.9339 -3.40807
lclavicle -2.69353e-014 9.54166e-015
lhumerus -38.0069 -2.6274 96.5259
lradius 109.665
lwrist 35.0243
lhand -16.6318 11.642
lfingers 7.12502
lthumb 9.5906 41.4037
rfemur -40.6334 2.60785 13.389
rtibia 75.8279
rfoot -6.68107 -11.0343
rtoes 0.835669
lfemur -3.27168 4.76087 -27.6922
ltibia 46.8081
lfoot -20.8034 8.97718
ltoes -25.318
15
root 1.51137 16.7007 -17.2822 -4.48322 -7.62817 5.99431
lowerback 10.4029 0.66047 -8.09301
upperback 0.931108 0.0390181 1.94295
thorax -4.87637 0.205126 6.63477
lowerneck -18.3086 -1.42645 -8.47317
upperneck 16.1138 -0.633255 4.93128
head 8.04735 -0.326072 2.96456
rclavicle 2.33075e-014 -1.59028e-014
rhumerus -62.8684 8.45963 -97.6473
rradius 110.788
rwrist -20.4714
rhand -13.6167 27.0214
rfingers 7.12502
rthumb 12.4986 -2.58486
lclavicle 2.33075e-014 -1.59028e-014
lhumerus -37.5482 -2.09333 96.3932
lradius 111.675
lwrist 36.3156
lhand -16.8038 9.80915
lfingers 7.12502
lthumb 9.42464 39.5784
rfemur -41.2236 2.9182 13.6436
rtibia 71.1161
rfoot -6.21403 -11.0883
rtoes -1.86887
lfemur -1.26924 4.86766 -27.6832
ltibia 45.6794
lfoot -18.666 8.04553
ltoes -26.4688
